<?xml version="1.0" standalone="no"?>
<!DOCTYPE svg PUBLIC "-//W3C//DTD SVG 20010904//EN"
 "http://www.w3.org/TR/2001/REC-SVG-20010904/DTD/svg10.dtd">
<svg version="1.0" xmlns="http://www.w3.org/2000/svg"
 width="2000.000000pt" height="2000.000000pt" viewBox="0 0 2000.000000 2000.000000"
 preserveAspectRatio="xMidYMid meet">

<g transform="translate(0.000000,2000.000000) scale(0.100000,-0.100000)"
fill="#000000" stroke="none">
<path d="M9758 15540 c-3 -8 -14 -44 -24 -80 -30 -107 -69 -185 -172 -339 -71
-108 -104 -167 -123 -226 -34 -102 -49 -112 -94 -63 -61 66 -83 207 -51 328 8
30 28 108 45 172 35 133 37 160 16 178 -13 11 -15 7 -15 -23 0 -19 -18 -88
-41 -154 -22 -65 -54 -169 -71 -231 -30 -106 -31 -116 -18 -165 16 -64 68
-169 109 -221 51 -64 51 -63 -108 -276 -55 -74 -110 -159 -121 -188 -11 -29
-27 -110 -35 -180 -17 -148 -24 -173 -77 -307 -48 -120 -103 -227 -129 -251
-24 -22 -44 -14 -126 55 -59 49 -83 88 -83 135 0 43 60 143 135 226 79 87 114
145 115 190 0 14 -10 54 -21 90 -15 48 -23 108 -29 225 -6 123 -13 173 -29
215 -19 49 -20 68 -15 180 l6 125 -31 55 c-78 138 -104 203 -110 278 -7 83
-27 95 -24 13 3 -66 31 -156 90 -285 l46 -99 -18 -93 c-18 -88 -18 -96 -2
-153 12 -42 17 -99 17 -189 0 -117 -2 -131 -20 -147 l-20 -18 25 -27 c30 -31
75 -142 75 -184 0 -24 -17 -46 -94 -123 -121 -119 -128 -119 -190 -19 -61 97
-143 172 -252 229 -49 26 -98 59 -108 73 -20 28 -34 128 -35 245 -1 41 -6 72
-16 85 -13 17 -14 4 -15 -122 0 -194 -7 -199 -137 -94 -32 26 -82 81 -111 121
-133 189 -163 228 -217 277 -31 29 -87 69 -123 91 -125 71 -136 61 -18 -18 93
-63 155 -132 261 -290 104 -155 165 -221 274 -293 45 -31 89 -65 96 -76 23
-32 176 -392 195 -458 33 -113 32 -164 -3 -352 -17 -96 -36 -174 -42 -175 -13
-2 -34 44 -52 112 -38 143 -148 315 -238 371 -16 10 -67 30 -112 45 -140 45
-172 79 -188 200 -15 108 -56 180 -179 314 -41 45 -91 108 -111 141 -46 76
-89 195 -104 285 -19 120 -20 122 -16 34 9 -173 65 -317 177 -453 35 -43 80
-98 101 -124 66 -80 97 -172 64 -185 -8 -3 -47 16 -88 42 -41 26 -94 55 -119
65 -101 39 -114 49 -131 96 -17 46 -74 148 -103 185 -16 19 -16 19 -7 -5 5
-14 21 -49 36 -78 32 -64 36 -100 13 -115 -43 -28 -331 155 -526 336 -69 63
-92 78 -92 59 0 -5 43 -54 95 -109 113 -120 227 -208 381 -294 184 -102 179
-98 182 -149 5 -69 -28 -257 -54 -306 l-23 -43 25 -93 c14 -51 36 -112 49
-135 14 -24 36 -62 50 -86 16 -28 21 -47 15 -57 -12 -19 -46 -3 -191 91 -135
87 -142 89 -134 56 11 -41 -15 -47 -135 -31 -58 7 -139 14 -180 14 -41 0 -111
7 -155 15 -44 8 -91 14 -105 14 l-25 0 23 -9 c34 -14 250 -48 377 -59 174 -16
316 -40 355 -59 33 -17 95 -54 183 -109 65 -41 77 -72 77 -198 0 -60 7 -141
15 -180 20 -95 20 -224 -1 -253 -19 -27 -30 -27 -134 -1 -101 25 -128 38 -300
147 -260 165 -304 208 -431 425 -19 32 -59 82 -89 111 -54 52 -146 113 -156
104 -2 -3 17 -22 43 -44 90 -72 160 -156 204 -244 67 -136 161 -247 254 -301
77 -45 99 -64 92 -83 -8 -21 -32 -20 -115 3 -94 27 -115 36 -214 93 -171 99
-339 138 -590 138 -86 0 -168 4 -182 9 -13 6 -67 42 -119 80 -107 79 -167 117
-167 104 0 -4 20 -23 45 -41 93 -71 135 -113 135 -138 0 -25 4 -28 52 -38 15
-3 53 -30 85 -59 104 -95 160 -122 528 -252 72 -25 149 -54 173 -65 53 -25
141 -88 202 -145 58 -54 132 -106 196 -138 50 -25 70 -49 58 -68 -9 -16 -79
-10 -186 16 -56 14 -161 30 -233 36 -168 14 -191 20 -267 76 -107 79 -233 131
-435 177 -40 10 -105 28 -145 41 -78 26 -102 30 -94 16 9 -14 112 -48 261 -86
104 -26 169 -49 252 -91 126 -64 153 -86 137 -112 -8 -12 -32 -19 -80 -24 -38
-4 -89 -13 -114 -21 -42 -13 -34 -13 106 -9 l150 5 36 -32 c44 -38 68 -40 68
-6 0 56 81 57 325 6 77 -16 213 -38 302 -47 l162 -18 58 27 c33 15 92 31 136
37 124 16 142 14 181 -21 43 -37 67 -35 78 8 6 23 16 35 34 39 24 6 141 -13
369 -61 139 -29 203 -32 211 -10 4 9 -12 36 -40 67 -49 56 -55 72 -31 82 9 3
44 -19 93 -59 42 -36 96 -75 119 -87 41 -21 43 -21 62 -4 11 10 29 48 40 84
15 50 30 76 58 103 57 54 108 89 129 89 30 0 167 -122 223 -199 28 -39 60 -75
71 -81 12 -6 64 -10 127 -8 l108 3 6 70 c4 39 16 93 27 120 79 201 127 313
147 345 26 41 70 80 90 80 17 0 89 -82 122 -137 31 -54 30 -55 -111 -206 -112
-118 -189 -227 -180 -252 16 -41 67 -18 112 50 44 65 238 272 262 280 28 9
123 -44 195 -108 l59 -54 7 -83 c6 -64 12 -87 26 -98 14 -10 64 -12 229 -10
l211 3 56 35 c30 19 98 76 150 126 52 50 157 141 233 203 76 62 214 182 305
267 224 208 290 257 312 235 17 -17 -12 -63 -115 -188 -97 -118 -172 -251
-208 -370 -12 -39 -29 -78 -38 -85 -9 -8 -49 -25 -88 -37 -39 -12 -109 -41
-155 -64 -178 -92 -212 -127 -120 -127 58 0 103 15 219 73 48 24 123 51 167
61 44 10 116 29 160 43 44 14 126 38 183 54 117 33 269 106 357 171 33 25 103
87 155 140 120 120 180 159 305 198 55 18 136 43 180 57 115 36 256 113 365
200 52 42 119 89 147 105 58 33 73 48 48 48 -28 0 -109 -45 -167 -92 -127
-103 -316 -202 -458 -238 -284 -72 -295 -78 -459 -233 -177 -169 -362 -286
-378 -241 -2 6 8 26 21 45 14 19 65 94 113 167 177 269 159 252 461 437 63 39
125 88 177 141 44 45 109 103 145 129 36 26 103 87 150 135 47 48 92 90 99 92
13 4 13 9 2 35 -15 36 -10 49 51 131 22 30 37 57 33 60 -12 12 -88 -80 -128
-155 -59 -108 -101 -126 -344 -147 -178 -15 -189 -19 -288 -101 -93 -76 -352
-264 -389 -281 -33 -16 -38 -17 -52 -2 -15 15 -12 24 34 113 28 53 84 147 125
208 41 62 95 145 121 184 56 86 127 151 218 201 37 20 68 43 68 50 0 17 -3 16
-63 -14 -94 -48 -165 -105 -224 -180 -60 -77 -90 -91 -86 -41 3 38 60 129 136
216 36 40 80 101 98 135 21 37 70 97 127 153 50 51 92 95 92 98 0 14 -50 -23
-113 -84 -38 -36 -94 -104 -125 -151 -32 -47 -90 -123 -130 -170 -41 -47 -82
-102 -93 -122 -17 -33 -48 -132 -79 -256 -21 -83 -136 -178 -228 -189 -56 -6
-118 10 -131 36 -14 25 17 106 68 182 114 167 286 385 387 489 123 128 133
141 226 320 79 153 122 254 115 272 -2 7 -13 -7 -23 -32 -22 -55 -118 -240
-152 -295 -34 -54 -123 -147 -203 -211 -72 -57 -189 -187 -341 -379 -124 -157
-164 -218 -189 -290 -40 -115 -81 -175 -137 -204 -20 -10 -84 -28 -141 -39
-113 -23 -146 -43 -180 -112 -22 -43 -47 -137 -55 -205 -15 -121 -40 -243 -58
-282 -21 -46 -108 -133 -132 -133 -29 0 -39 40 -33 134 9 126 25 171 118 326
156 262 196 373 186 519 -7 88 2 113 55 168 23 23 62 72 87 109 33 49 67 83
120 120 138 98 236 209 325 366 68 122 114 164 243 228 59 29 102 55 94 58 -7
2 -66 -22 -129 -54 -139 -71 -186 -116 -244 -232 -88 -174 -299 -374 -324
-308 -3 8 15 79 39 158 52 163 87 310 87 360 0 72 59 228 121 320 48 69 99
175 99 203 0 29 -15 8 -45 -65 -15 -36 -47 -92 -72 -125 -72 -96 -102 -165
-138 -323 -36 -158 -140 -488 -185 -589 -50 -109 -102 -160 -126 -121 -9 14
-28 341 -27 459 0 65 6 89 40 170 43 100 81 275 65 291 -6 6 -18 -25 -31 -82
-11 -50 -37 -126 -57 -168 -61 -128 -63 -150 -58 -471 4 -226 3 -291 -8 -311
-17 -33 -195 -152 -221 -148 -20 3 -21 10 -22 183 -1 178 -2 181 -33 258 -29
71 -32 88 -32 183 0 80 6 132 27 217 23 98 27 133 27 277 1 133 -3 177 -18
227 -24 81 -19 111 42 219 118 213 152 284 136 284 -10 0 -30 -32 -56 -87 -52
-115 -123 -223 -145 -223 -9 0 -25 7 -35 17 -17 15 -18 14 -18 -34 0 -71 -15
-106 -61 -139 -142 -101 -198 -165 -220 -247 -18 -70 -83 -198 -138 -272 -33
-45 -59 -94 -72 -137 -11 -36 -27 -74 -35 -85 -13 -17 -15 -17 -34 6 -12 14
-20 38 -20 60 -1 47 -30 112 -79 170 -89 107 -92 167 -13 269 44 58 52 86 52
185 1 125 8 150 74 250 59 88 86 155 86 214 0 23 -5 33 -15 33 -11 0 -15 -12
-15 -45 0 -61 -19 -104 -85 -189 -69 -91 -85 -136 -85 -243 0 -93 -12 -130
-64 -202 -41 -56 -61 -117 -52 -164 4 -19 33 -71 67 -116 64 -86 79 -121 79
-188 0 -58 12 -84 70 -154 84 -101 95 -129 94 -239 -2 -137 -50 -268 -147
-397 -62 -84 -261 -293 -277 -293 -26 0 -50 38 -50 77 0 19 9 68 19 111 11 44
22 134 26 211 7 161 26 255 66 338 16 34 33 77 36 96 7 48 -19 132 -83 262
-65 133 -68 167 -24 287 17 45 30 96 30 112 0 34 -50 123 -107 193 -61 74 -57
144 18 310 15 34 53 101 84 148 32 47 73 122 92 166 38 88 77 229 70 257 -3
14 -5 14 -9 2z m750 -808 c22 -15 33 -74 39 -207 5 -128 5 -132 -37 -294 -51
-199 -53 -278 -6 -374 27 -54 29 -66 33 -230 11 -371 -37 -479 -317 -722 -84
-72 -100 -92 -143 -172 -26 -50 -52 -116 -58 -147 -13 -62 -28 -81 -59 -71
-36 11 -80 56 -80 80 0 21 67 159 155 320 19 33 79 110 135 170 55 60 112 132
126 160 29 60 50 158 60 275 9 116 -12 96 -31 -31 -26 -176 -53 -226 -208
-388 -111 -116 -128 -139 -196 -265 -41 -75 -83 -142 -94 -147 -16 -9 -29 0
-89 59 -69 70 -69 70 -55 99 9 15 54 71 102 123 163 177 249 310 300 465 24
72 27 91 23 195 -3 108 -6 120 -41 196 -63 139 -48 232 64 398 51 75 77 125
100 196 51 155 81 200 180 274 62 47 75 52 97 38z m-1055 -184 c29 -39 26
-104 -7 -208 -41 -126 -34 -191 35 -334 69 -141 71 -188 16 -287 -20 -36 -44
-99 -53 -139 -16 -70 -20 -77 -97 -157 -47 -49 -73 -83 -64 -83 9 0 19 5 22
11 4 6 25 24 47 40 56 40 68 28 68 -65 0 -89 -25 -253 -41 -272 -28 -35 -153
-4 -174 44 -8 19 -15 21 -43 16 -26 -5 -49 1 -105 29 -85 42 -122 90 -156 202
-25 80 -22 110 19 175 42 65 145 285 169 357 12 35 25 116 31 185 13 152 31
194 155 363 122 168 137 178 178 123z m-1137 -436 c79 -51 171 -154 213 -238
28 -56 35 -84 41 -159 8 -113 19 -133 135 -239 86 -78 104 -105 141 -208 25
-72 73 -120 166 -168 46 -24 97 -54 114 -67 17 -12 37 -23 45 -23 18 0 206
-47 218 -54 4 -3 19 -33 31 -66 26 -70 28 -66 -70 -170 -52 -55 -75 -94 -151
-250 -83 -171 -107 -210 -132 -210 -15 0 -198 183 -207 207 -12 29 60 255 100
314 16 24 30 50 30 57 1 53 -93 -74 -143 -195 -21 -50 -45 -94 -53 -97 -16 -6
-43 5 -66 26 -7 7 -43 37 -79 66 -74 59 -121 117 -172 212 -69 126 -85 185
-92 337 -4 86 -2 157 4 188 32 146 33 166 22 256 -15 116 -28 154 -113 331
-49 102 -68 153 -63 167 3 12 10 21 14 21 4 0 34 -17 67 -38z m-882 -138 c60
-30 85 -53 176 -159 59 -69 70 -88 79 -138 12 -68 8 -58 134 -271 122 -204
156 -296 112 -296 -7 0 -34 26 -61 58 -64 76 -152 161 -247 238 -93 75 -138
88 -62 17 165 -153 221 -211 308 -323 100 -129 127 -184 127 -262 0 -49 26
-175 46 -225 8 -21 37 -82 65 -135 57 -112 60 -128 23 -128 -52 0 -123 51
-207 148 -134 155 -151 180 -242 354 -49 93 -109 192 -136 225 -93 110 -241
349 -269 432 -12 37 -12 45 2 69 15 24 15 30 1 57 -13 24 -14 37 -4 75 6 25
18 94 25 153 8 59 20 114 26 122 18 21 45 19 104 -11z m456 -334 c139 -70 209
-201 286 -534 15 -68 42 -149 60 -186 44 -87 142 -201 257 -298 140 -118 197
-173 197 -192 0 -9 -33 -44 -74 -78 -61 -50 -78 -70 -94 -114 -13 -36 -26 -54
-39 -56 -24 -4 -123 68 -191 138 -55 58 -134 184 -169 270 -32 80 -86 349 -76
377 8 22 -58 258 -91 323 -18 36 -59 101 -90 145 -91 126 -127 205 -105 231
16 19 55 11 129 -26z m4738 -167 c3 -18 -12 -32 -80 -76 -46 -29 -125 -90
-176 -134 -52 -44 -143 -109 -203 -144 -282 -165 -314 -193 -437 -386 -161
-253 -333 -413 -442 -413 -37 0 -40 2 -40 28 0 38 81 214 134 292 25 36 72 97
105 135 34 39 77 102 97 140 49 94 66 110 159 155 99 48 284 180 421 300 76
66 110 80 238 97 61 8 126 18 146 23 53 13 75 8 78 -17z m-1790 -168 c5 -120
-28 -213 -132 -380 -135 -218 -175 -370 -155 -587 3 -41 0 -50 -26 -78 -36
-38 -238 -140 -277 -140 -34 0 -48 24 -48 83 0 56 -17 104 -69 192 -53 90 -55
142 -10 253 38 96 76 146 158 208 95 71 203 184 257 267 25 39 60 93 77 118
39 60 161 151 196 147 25 -3 26 -5 29 -83z m838 -79 c3 -8 -12 -49 -33 -92
-36 -76 -41 -81 -114 -124 -109 -65 -178 -119 -303 -240 -146 -141 -256 -232
-275 -228 -14 3 -15 18 -12 98 4 123 36 298 59 330 14 19 38 29 98 43 157 37
206 66 275 162 38 53 53 59 133 51 33 -4 75 -2 91 3 45 14 75 13 81 -3z
m-4036 -420 c60 -119 115 -212 148 -253 48 -58 52 -67 39 -81 -12 -12 -21 -12
-47 -4 -17 6 -65 14 -108 18 -42 3 -87 12 -99 20 -28 18 -43 71 -43 156 0 37
-7 98 -15 136 -13 62 -12 148 1 190 10 32 35 -4 124 -182z m-1469 54 c168 -27
215 -43 385 -130 166 -86 164 -85 598 -191 165 -41 308 -80 318 -89 9 -8 34
-60 53 -115 35 -98 35 -100 16 -116 -10 -9 -87 -30 -169 -48 -169 -36 -154
-38 -257 34 -33 23 -96 63 -140 88 -44 26 -123 83 -175 127 -124 106 -242 164
-465 231 -318 95 -468 169 -422 208 11 9 50 15 117 19 14 1 77 -7 141 -18z
m1594 -422 c43 -9 103 -31 230 -81 127 -51 195 -108 195 -163 0 -39 -56 -42
-190 -8 -30 7 -109 18 -175 24 -66 6 -129 14 -140 17 -36 10 -54 35 -86 117
l-31 80 23 19 c24 20 67 18 174 -5z"/>
<path d="M13169 12960 c-135 -98 -181 -120 -273 -130 -102 -12 -167 -42 -261
-120 -101 -85 -445 -251 -615 -296 -66 -18 -173 -80 -238 -137 -26 -23 -83
-64 -127 -91 -114 -71 -126 -81 -112 -95 20 -20 45 -11 158 58 29 17 62 24
160 31 247 19 417 69 672 196 158 80 232 103 367 115 128 12 216 31 270 59 45
25 28 25 -51 1 -74 -22 -113 -28 -265 -40 -83 -7 -127 -15 -170 -34 -102 -44
-235 -103 -350 -156 -134 -61 -222 -86 -371 -106 -86 -12 -117 -13 -134 -5
l-21 12 27 28 c40 41 108 75 246 121 204 68 500 222 611 317 80 70 115 87 223
107 50 9 106 26 125 38 47 28 220 156 220 162 0 16 -44 0 -91 -35z"/>
<path d="M4820 12371 l0 -281 35 0 34 0 3 123 3 122 118 -1 c111 -1 120 -2
142 -25 20 -20 25 -39 32 -119 l8 -95 43 -3 c42 -3 52 4 31 25 -6 6 -14 52
-18 102 -6 82 -9 93 -36 121 l-29 30 22 16 c52 36 69 132 32 191 -36 59 -66
67 -252 71 l-168 4 0 -281z m329 204 c33 -16 41 -33 41 -81 0 -82 -42 -104
-195 -104 l-105 0 0 100 0 100 115 0 c82 0 124 -4 144 -15z"/>
<path d="M13437 12340 c-133 -89 -350 -164 -423 -146 -12 3 -80 6 -151 7 -140
1 -192 -9 -313 -62 -36 -15 -77 -31 -93 -35 -42 -10 -42 -24 0 -24 21 0 83 17
138 37 221 79 205 75 251 64 66 -17 283 -14 335 4 56 20 272 129 323 163 37
25 48 43 29 49 -4 1 -48 -24 -96 -57z"/>
<path d="M4050 11825 c0 -13 618 -15 5505 -15 4887 0 5505 2 5505 15 0 13
-618 15 -5505 15 -4887 0 -5505 -2 -5505 -15z"/>
<path d="M13750 11300 l0 -280 30 0 29 0 3 123 3 122 98 3 c114 3 169 -9 185
-40 6 -13 15 -63 19 -113 l8 -90 39 -3 c34 -3 38 -1 31 15 -8 17 -23 132 -24
181 -1 13 -14 36 -30 52 l-28 29 28 27 c34 32 49 93 37 149 -11 50 -23 64 -73
86 -33 15 -67 19 -197 19 l-158 0 0 -280z m345 195 c19 -18 25 -35 25 -70 0
-86 -56 -111 -230 -103 l-75 3 -3 98 -3 97 131 0 c126 0 132 -1 155 -25z"/>
<path d="M6145 11560 c-4 -7 41 -146 61 -188 9 -19 27 -66 40 -104 13 -39 28
-76 32 -82 5 -6 19 -38 32 -71 13 -33 26 -62 29 -65 3 -3 22 -38 41 -79 19
-41 40 -79 45 -85 36 -39 231 -414 271 -521 10 -27 21 -52 24 -55 3 -3 19 -36
35 -75 16 -38 32 -72 36 -75 5 -3 23 -37 40 -75 18 -39 40 -81 49 -95 10 -14
37 -59 60 -100 42 -72 124 -204 154 -245 85 -117 196 -275 196 -279 0 -4 83
-131 213 -324 34 -51 99 -145 145 -210 45 -64 85 -124 89 -132 4 -8 9 -17 13
-20 3 -3 21 -27 40 -55 18 -27 49 -68 67 -91 18 -23 33 -45 33 -49 0 -4 6 -13
14 -19 12 -10 48 -57 231 -301 24 -33 54 -71 65 -85 17 -20 162 -210 225 -295
9 -11 41 -54 72 -95 l57 -74 13 92 c15 115 62 277 108 378 38 81 58 207 60
359 1 134 3 154 23 192 12 23 26 44 32 48 6 3 29 39 51 78 70 124 104 180 147
245 28 42 42 74 42 95 0 18 -18 84 -40 147 -22 63 -50 147 -61 185 -12 39 -31
90 -44 115 -53 107 -113 296 -108 340 1 8 -4 51 -12 95 -8 44 -17 139 -20 210
-7 130 -33 315 -60 410 -17 61 -88 253 -103 280 -24 41 -100 263 -111 325 -13
68 -2 238 19 310 5 19 10 37 10 40 0 10 -845 5 -852 -5 -4 -5 -8 -37 -8 -71 0
-39 -9 -87 -26 -134 -36 -104 -50 -129 -102 -182 -45 -47 -46 -48 -51 -131 -7
-96 -28 -136 -114 -219 -60 -58 -114 -77 -242 -85 -105 -7 -185 11 -234 53
-39 32 -39 40 1 48 17 3 58 16 90 27 47 18 63 30 84 64 17 26 56 61 108 96 91
60 105 74 138 122 13 19 69 90 126 158 154 186 161 195 172 224 5 14 10 29 10
33 0 8 -1450 10 -1455 2z m1891 -1205 c14 -82 33 -163 41 -180 44 -86 53 -105
72 -162 12 -34 21 -84 21 -109 0 -48 -3 -53 -90 -184 -9 -14 -24 -48 -34 -75
-39 -118 -153 -272 -228 -308 -33 -15 -39 -16 -84 0 -27 9 -69 30 -94 48 -41
29 -196 101 -260 120 -41 12 -47 22 -41 62 6 35 11 41 71 70 36 18 103 44 150
59 174 56 166 49 268 229 43 76 55 110 77 215 46 219 64 333 66 410 l1 75 19
-60 c11 -33 31 -127 45 -210z"/>
<path d="M10075 11559 c-2 -3 12 -82 31 -175 19 -93 46 -230 60 -304 32 -179
46 -240 56 -246 4 -3 8 -1 8 4 0 6 33 58 73 117 39 58 76 114 82 123 5 9 19
31 31 47 11 17 41 71 66 120 25 50 57 110 71 135 31 53 97 178 97 182 0 6
-572 3 -575 -3z"/>
</g>
</svg>
